<svg id="Layer_1" data-name="Layer 1" xmlns="http://www.w3.org/2000/svg" xmlns:xlink="http://www.w3.org/1999/xlink" viewBox="0 0 882.41 920.5"><defs><style>.cls-1,.cls-2,.cls-3,.cls-4,.cls-5,.cls-6,.cls-7,.cls-8{stroke:#000;stroke-miterlimit:10;}.cls-1,.cls-3{stroke-width:13px;}.cls-2{stroke-width:7px;}.cls-3,.cls-7,.cls-8{fill:none;}.cls-4{fill:#008081;}.cls-4,.cls-5{stroke-width:20px;}.cls-6{stroke-width:2px;}.cls-7{stroke-width:18px;}.cls-8{stroke-width:17px;}</style></defs><title>Untitled-1</title><text x="-26" y="-71.5"/><path d="M499.5,226a281.53,281.53,0,1,1-110,22.19A280.83,280.83,0,0,1,499.5,226m0-20C332.43,206,197,341.43,197,508.5S332.43,811,499.5,811,802,675.57,802,508.5,666.57,206,499.5,206Z" transform="translate(-26 -71.5)"/><image width="1000" height="1000" transform="matrix(0.52, 0.01, -0.01, 0.52, 221.36, 161.34)" xlink:href="C:%5CUsers%5Chp%5CDesktop%5C1%20Per%20pune%5Cdeformed%20circle.png"/><line class="cls-1" x1="474" y1="437.5" x2="474" y2="175.5"/><line class="cls-1" x1="473.5" y1="436.55" x2="735.5" y2="434.45"/><line class="cls-1" x1="473.46" y1="298.32" x2="612.95" y2="297.21"/><rect class="cls-2" x="471" y="436.5" width="4" height="3"/><polyline class="cls-3" points="782 501.5 809 609.5 881 593.5"/><circle cx="472.5" cy="56" r="56"/><line class="cls-4" x1="475.51" y1="739" x2="475.51" y2="920.5"/><line class="cls-4" x1="553.26" y1="829.26" x2="396.96" y2="828.78"/><line class="cls-5" x1="810.33" y1="160.84" x2="712.04" y2="257.71"/><line class="cls-5" x1="815.74" y1="155.52" x2="798.51" y2="222.34"/><line class="cls-5" x1="815.38" y1="155.16" x2="748.33" y2="171.42"/><polygon class="cls-6" points="821.03 170.99 810.68 160.5 800.33 150.01 814.59 146.29 828.85 142.57 824.94 156.78 821.03 170.99"/><line class="cls-5" x1="91.86" y1="213.47" x2="209.8" y2="304.76"/><line class="cls-5" x1="85.36" y1="208.46" x2="112.45" y2="277.94"/><line class="cls-5" x1="85.7" y1="208.03" x2="159.75" y2="216.84"/><polygon class="cls-6" points="81.68 225.74 91.43 213.15 101.19 200.56 85.41 198.4 69.63 196.25 75.65 210.99 81.68 225.74"/><line class="cls-5" x1="146.01" y1="307.44" x2="195.49" y2="248.85"/><image width="512" height="512" transform="translate(0 664.56) rotate(-29.74) scale(0.42)" xlink:href="C:%5CUsers%5Chp%5CDesktop%5C1%20Per%20pune%5Cear.png"/><line class="cls-7" x1="195" y1="675.5" x2="253" y2="637.5"/><line class="cls-8" x1="59" y1="777.5" x2="124" y2="733.5"/></svg>